#!OML:ASF E:\I on waltz\AllaLogoMonkeySwing\Project 1\Capture day 1\Session 1\Subject1.ASF
:FULLY-SPECIFIED
:DEGREES
735
root 0.758202 19.775 2.28622 364.636 260.649 355.824
lowerback 11.4249 -0.92256 0.506494
upperback -0.448436 -1.04845 2.12887
thorax -6.86288 -0.506021 2.14159
lowerneck -12.1727 3.57702 1.54476
upperneck 15.8684 5.10176 -3.55014
head 6.99105 2.18373 -0.915749
rclavicle 4.26393e-014 -1.03368e-014
rhumerus -81.374 -21.7276 -2.45282
rradius 18.2565
rwrist 0.0923881
rhand -11.1649 -39.1955
rfingers 7.12502
rthumb 14.8616 -68.6425
lclavicle 4.26393e-014 -1.03368e-014
lhumerus -39.0748 12.1903 44.3791
lradius 58.8265
lwrist 8.97342
lhand -13.2282 -15.758
lfingers 7.12502
lthumb 12.8733 13.825
rfemur -2.79054 0.309489 12.6928
rtibia 21.669
rfoot 14.0095 -2.05866
rtoes 16.6208
lfemur -6.43018 1.52522 -9.07853
ltibia 28.4779
lfoot 11.6908 -13.168
ltoes -45.9874
736
root 0.714331 19.0793 2.31372 378.88 263.749 341.577
lowerback 11.3761 -0.762551 -0.423556
upperback -0.443193 -0.980139 1.70759
thorax -6.82311 -0.443316 2.20833
lowerneck -12.2922 2.80621 1.06917
upperneck 15.1392 4.03898 -2.98023
head 6.72558 1.71388 -0.75837
rclavicle -2.45996e-014 5.56597e-015
rhumerus -79.7964 -21.1713 -0.888111
rradius 18.4859
rwrist -0.566995
rhand -11.7111 -40.179
rfingers 7.12502
rthumb 14.3354 -69.6641
lclavicle -2.45996e-014 5.56597e-015
lhumerus -39.7712 12.1895 41.2673
lradius 58.5583
lwrist 11.0117
lhand -13.7888 -14.3996
lfingers 7.12502
lthumb 12.3327 15.2167
rfemur -3.24011 0.689618 11.4722
rtibia 24.7106
rfoot 3.94877 -1.47606
rtoes -2.58829
lfemur -5.1085 0.788102 -10.3908
ltibia 27.2035
lfoot 12.1945 -15.8256
ltoes -47.0129
737
root 0.69732 18.3512 2.35098 409.006 265.953 311.769
lowerback 11.504 -0.702215 -1.14765
upperback -0.68021 -1.00787 1.43031
thorax -7.13977 -0.4269 2.33618
lowerneck -11.5666 2.13059 0.136673
upperneck 13.7579 3.10992 -1.96214
head 6.10808 1.33138 -0.379815
rclavicle 4.96962e-017 -4.77083e-015
rhumerus -78.0286 -21.2915 2.25634
rradius 18.5555
rwrist -1.03082
rhand -12.0442 -40.9253
rfingers 7.12502
rthumb 14.0144 -70.4329
lclavicle 4.96962e-017 -4.77083e-015
lhumerus -40.9828 12.9171 37.7815
lradius 58.028
lwrist 10.6809
lhand -13.4791 -14.6615
lfingers 7.12502
lthumb 12.6313 14.9366
rfemur -5.55111 -0.731066 10.523
rtibia 34.69
rfoot -9.14448 -7.68743
rtoes -21.9539
lfemur -4.56618 1.39086 -11.3687
ltibia 29.4791
lfoot -4.57774 -11.5414
ltoes -52.3396
738
root 0.74559 17.6118 2.42728 455.181 265.842 265.86
lowerback 12.6861 -0.724252 -1.67376
upperback -1.18684 -1.14075 1.13245
thorax -8.34828 -0.451297 2.37877
lowerneck -10.3005 1.62081 0.640052
upperneck 12.3143 2.45272 -2.99712
head 5.45118 0.988848 -0.856368
rclavicle -5.2181e-015 1.90833e-014
rhumerus -76.2846 -22.6642 6.71719
rradius 18.6234
rwrist 0.208412
rhand -12.7136 -41.3002
rfingers 7.12502
rthumb 13.3693 -70.8513
lclavicle -5.2181e-015 1.90833e-014
lhumerus -42.7672 14.3198 34.3479
lradius 57.6716
lwrist 10.519
lhand -12.7792 -14.5859
lfingers 7.12502
lthumb 13.306 14.9693
rfemur -6.74161 -0.933535 8.78483
rtibia 38.1488
rfoot -18.8591 -10.4939
rtoes -7.87072
lfemur -6.50933 3.44546 -12.6059
ltibia 34.9614
lfoot -18.4729 -5.23279
ltoes -54.4262
739
root 0.872821 17.0162 2.50996 475.655 264.103 246.508
lowerback 14.2675 -0.810434 -2.40233
upperback -1.88715 -1.43814 0.766267
thorax -10.003 -0.527606 2.51497
lowerneck -10.8235 1.3456 0.0453251
upperneck 12.7805 2.08116 -2.21389
head 5.66396 0.827849 -0.538973
rclavicle 5.96354e-016 1.74931e-014
rhumerus -74.4454 -26.43 11.4321
rradius 18.7061
rwrist 3.44869
rhand -13.7702 -41.6231
rfingers 7.12502
rthumb 12.3507 -71.2382
lclavicle 5.96354e-016 1.74931e-014
lhumerus -45.882 17.7991 30.5649
lradius 57.7251
lwrist 9.5268
lhand -12.714 -15.0843
lfingers 7.12502
lthumb 13.3689 14.4668
rfemur -10.0172 -2.45444 7.13189
rtibia 43.1815
rfoot -25.8073 -13.1651
rtoes -5.50292
lfemur -10.1729 5.52412 -14.4626
ltibia 39.0012
lfoot -21.8358 -1.92401
ltoes -47.3917
